<?xml version="1.0" standalone="no"?>
<!DOCTYPE svg PUBLIC "-//W3C//DTD SVG 1.1//EN" "http://www.w3.org/Graphics/SVG/1.1/DTD/svg11.dtd" >
<svg xmlns="http://www.w3.org/2000/svg" xmlns:xlink="http://www.w3.org/1999/xlink" version="1.1">
<metadata></metadata>
<defs>
<font id="sharp_groteskmedium_15" horiz-adv-x="946" >
<font-face units-per-em="2048" ascent="1638" descent="-410" />
<missing-glyph horiz-adv-x="438" />
<glyph horiz-adv-x="0" />
<glyph horiz-adv-x="682" />
<glyph unicode=" "  horiz-adv-x="438" />
<glyph unicode="&#x09;" horiz-adv-x="438" />
<glyph unicode="&#xa0;" horiz-adv-x="438" />
<glyph unicode="!" horiz-adv-x="522" d="M131 127q0 82 29 112.5t98 30.5t99 -30.5t30 -112.5q0 -81 -30.5 -113t-98.5 -32q-71 0 -99 31t-28 114zM158 1110v350h204v-350q0 -167 -12 -475q-14 -265 -20 -283q-21 8 -70 8q-51 0 -70 -8q-11 95 -18 283q-14 269 -14 475z" />
<glyph unicode="&#x22;" horiz-adv-x="659" d="M98 1423v37h174v-37q0 -274 -34 -444h-109q-31 155 -31 444zM387 1423v37h174v-37q0 -269 -35 -444h-108q-31 155 -31 444z" />
<glyph unicode="#" horiz-adv-x="1341" d="M76 414v166h262l43 340h-252v165h272l50 375h184l-49 -375h254l49 375h182l-47 -375h244v-165h-267l-43 -340h256v-166h-276l-53 -414h-185l54 414h-254l-54 -414h-184l53 414h-239zM522 580h254l43 340h-254z" />
<glyph unicode="$" horiz-adv-x="923" d="M70 360v185h200v-180q0 -102 47 -155.5t156 -53.5q96 0 141 51.5t45 140.5v60q0 74 -36 122q-23 31 -64 60t-71 45t-91 45q-91 47 -145 82q-164 108 -164 309v47q0 93 31 166.5t100.5 124.5t171.5 64v225h184v-232q130 -25 192 -112t62 -217v-160h-192v147q0 93 -43 140 t-137 47q-91 0 -133.5 -53.5t-42.5 -143.5v-33q0 -72 36 -120q23 -29 62.5 -58t72.5 -47t89 -45q91 -47 145 -82q79 -52 121.5 -124.5t42.5 -182.5v-76q0 -142 -74.5 -237t-210.5 -119v-221h-186v219q-167 20 -238 111t-71 261z" />
<glyph unicode="%" horiz-adv-x="1245" d="M80 1065v178q0 113 63 173.5t170 60.5q109 0 170.5 -60.5t61.5 -173.5v-178q0 -109 -62 -172.5t-172 -63.5q-113 0 -172 60.5t-59 175.5zM111 0l825 1460h197l-822 -1460h-200zM219 1075q0 -117 92 -117q95 0 95 117v164q0 113 -93 113q-94 0 -94 -113v-164zM698 213v178 q0 113 64 176.5t170 63.5q108 0 170.5 -63.5t62.5 -176.5v-178q0 -109 -62 -171t-171 -62q-114 0 -174 59.5t-60 173.5zM840 223q0 -112 92 -112q94 0 94 112v164q0 113 -94 113q-92 0 -92 -113v-164z" />
<glyph unicode="&#x26;" horiz-adv-x="1214" d="M61 344v21q0 103 37 176q34 71 95 129.5t153 120.5q-61 192 -61 342v10q0 158 78 247t223 89q138 0 214.5 -73t76.5 -206v-14q0 -138 -82 -247t-248 -216q42 -100 88 -186q86 -162 162 -244q153 193 153 563v78h174v-78q0 -205 -51 -378.5t-151 -293.5q53 -34 112 -34 q81 0 131 53v-176q-43 -43 -141 -43q-126 0 -236 82q-134 -86 -301 -86q-202 0 -314 93t-112 271zM250 362q0 -99 60.5 -159t176.5 -60q100 0 177 41q-95 116 -179 277q-41 78 -84 176q-81 -62 -116 -120.5t-35 -145.5v-9zM453 1139q0 -116 41 -265q114 75 165.5 148 t51.5 172v6q0 131 -125 131q-133 0 -133 -182v-10z" />
<glyph unicode="'" horiz-adv-x="370" d="M98 1423v37h174v-37q0 -274 -34 -444h-109q-31 151 -31 444z" />
<glyph unicode="(" horiz-adv-x="653" d="M121 268v623q0 306 120 452.5t347 157.5v-182q-136 -11 -201 -111.5t-65 -320.5v-608q0 -218 65.5 -319.5t200.5 -109.5v-186q-235 8 -351 150t-116 454z" />
<glyph unicode=")" horiz-adv-x="653" d="M66 -150q135 8 200.5 109.5t65.5 319.5v608q0 221 -65 321.5t-201 108.5v184q228 -11 347 -157t119 -453v-623q0 -312 -115.5 -454t-350.5 -150v186z" />
<glyph unicode="*" horiz-adv-x="747" d="M80 1163l262 78l-262 78l80 137l198 -186l-63 266h160l-64 -264l197 186l80 -137l-262 -78l262 -80l-78 -137l-197 184l62 -262h-160l61 264l-196 -186z" />
<glyph unicode="+" horiz-adv-x="884" d="M106 639v168h252v252h166v-252h256v-168h-256v-252h-166v252h-252z" />
<glyph unicode="," horiz-adv-x="505" d="M129 119q0 81 27.5 110t97.5 29q73 0 101 -37.5t28 -144.5q0 -284 -240 -332l-2 109q104 24 119 139q-20 -4 -29 -4q-55 0 -78.5 26t-23.5 105z" />
<glyph unicode="-" horiz-adv-x="808" d="M94 516v191h623v-191h-623z" />
<glyph unicode="." horiz-adv-x="505" d="M125 129q0 82 29 112.5t98 30.5t99 -30.5t30 -112.5q0 -81 -30.5 -114t-98.5 -33q-71 0 -99 31.5t-28 115.5z" />
<glyph unicode="/" horiz-adv-x="622" d="M45 0l338 1460h197l-336 -1460h-199z" />
<glyph unicode="0" horiz-adv-x="1017" d="M96 430v592q0 221 109.5 338t304.5 117t303.5 -116.5t108.5 -338.5v-592q0 -226 -107.5 -338t-306.5 -112q-198 0 -305 111.5t-107 338.5zM295 442q0 -142 51.5 -212t163.5 -70q109 0 161 70.5t52 211.5v572q0 144 -51.5 216.5t-163.5 72.5q-111 0 -162 -73t-51 -216 v-572z" />
<glyph unicode="1" horiz-adv-x="712" d="M59 0v186h209v924h-159v145q96 10 136.5 53t59.5 152h150v-1274h207v-186h-603z" />
<glyph unicode="2" horiz-adv-x="948" d="M82 0v158q0 137 49 235q31 61 82 122t92 98t107 92q22 17 127 106q131 115 131 240v51q0 104 -43.5 152.5t-145.5 48.5q-192 0 -192 -185v-200h-197v206q0 172 102.5 262.5t290.5 90.5t285.5 -95.5t97.5 -273.5v-51q0 -117 -43 -193q-38 -71 -97 -131.5t-150 -136.5 q-87 -72 -134 -117q-143 -133 -143 -293h569v-186h-788z" />
<glyph unicode="3" horiz-adv-x="952" d="M68 338v188h196v-176q0 -188 203 -188q109 0 158 52t49 161v96q0 195 -213 195h-105v163h105q100 0 148 52.5t48 148.5v84q0 96 -43.5 142.5t-144.5 46.5q-193 0 -193 -183v-153h-194v161q0 161 102 255t287 94q196 0 290.5 -89t94.5 -255v-84q0 -114 -41.5 -190 t-142.5 -109q205 -54 205 -297v-95q0 -103 -39 -192q-88 -184 -371 -184q-205 0 -302 88.5t-97 267.5z" />
<glyph unicode="4" horiz-adv-x="966" d="M47 324v143l533 993h170v-966h172v-170h-172v-324h-181v324h-522zM246 494h323v536l33 221l-65 -198z" />
<glyph unicode="5" horiz-adv-x="958" d="M84 371v127h203v-109q0 -128 42 -179.5t154 -51.5q106 0 149.5 60t43.5 183v246q0 96 -46.5 146.5t-133.5 50.5q-73 0 -120 -34.5t-79 -98.5q-14 -39 -16 -41l-191 53l74 737h684v-8q0 -74 -17 -117q-13 -35 -53 -46t-129 -11h-321q0 -6 -15 -141q-22 -230 -28 -283 q43 79 107.5 124.5t170.5 41.5q153 4 232 -94t79 -269v-274q0 -200 -99 -301.5t-294 -101.5q-200 0 -298.5 91.5t-98.5 299.5z" />
<glyph unicode="6" horiz-adv-x="993" d="M96 430v592q0 455 422 455q187 0 286 -98.5t99 -284.5v-45h-198v32q0 111 -46.5 166.5t-146.5 55.5q-117 0 -171 -73t-54 -216v-297q83 184 288 184q161 0 252 -98t91 -293v-80q0 -225 -109 -337.5t-309 -112.5q-404 0 -404 450zM287 442q0 -142 51.5 -212t163.5 -70 q219 0 219 282v60q0 103 -52 164t-165 61q-99 0 -155.5 -58.5t-61.5 -156.5v-70z" />
<glyph unicode="7" horiz-adv-x="847" d="M51 1272v188h750v-162q-123 -237 -187 -407q-153 -388 -225 -891h-215q50 268 111 485q116 410 313 787h-547z" />
<glyph unicode="8" horiz-adv-x="970" d="M82 332v151q0 96 47 170.5t127 110.5q-150 66 -150 268v98q0 156 99.5 251.5t281.5 95.5t283.5 -95.5t101.5 -251.5v-98q0 -94 -40.5 -162t-114.5 -104q81 -36 127.5 -109t46.5 -174v-151q0 -160 -106 -256t-300 -96q-195 0 -299 95.5t-104 256.5zM281 352q0 -86 53 -139 t151 -53q99 0 154 52t55 140v131q0 79 -52 137t-142 58h-31q-59 0 -102 -29q-86 -62 -86 -166v-131zM297 1036q0 -78 44.5 -134t129.5 -56h31q85 0 131.5 56.5t46.5 135.5v70q0 94 -48 144.5t-143 50.5t-143.5 -50.5t-48.5 -146.5v-70z" />
<glyph unicode="9" horiz-adv-x="993" d="M80 965v82q0 212 106 321t306 109q198 0 301.5 -112.5t103.5 -340.5v-592q0 -226 -103 -339t-315 -113q-188 0 -287.5 96.5t-99.5 281.5v109h201v-96q0 -107 48.5 -160t154.5 -53q117 0 164 68.5t47 213.5v322q-78 -184 -287 -184q-166 0 -253 97t-87 290zM279 975 q0 -232 213 -232q98 0 154 63.5t61 162.5v43q0 146 -49.5 218.5t-165.5 72.5q-213 0 -213 -267v-61z" />
<glyph unicode=":" horiz-adv-x="512" d="M131 195q0 83 26.5 111t98.5 28q74 0 100.5 -28t26.5 -111t-27.5 -112.5t-99.5 -29.5t-98.5 28.5t-26.5 113.5zM131 928q0 83 26.5 111t98.5 28t99.5 -28t27.5 -111t-27.5 -112.5t-99.5 -29.5q-73 0 -99 28.5t-26 113.5z" />
<glyph unicode=";" horiz-adv-x="512" d="M131 928q0 83 26.5 111t98.5 28t99.5 -28t27.5 -111t-27.5 -112.5t-99.5 -29.5q-73 0 -99 28.5t-26 113.5zM133 119q0 81 27.5 110t97.5 29q73 0 101 -37.5t28 -144.5q0 -284 -237 -332l-3 109q104 24 119 139q-20 -4 -30 -4q-55 0 -79 26t-24 105z" />
<glyph unicode="&#x3c;" horiz-adv-x="909" d="M123 670v164l651 280v-188l-442 -170l442 -172v-199z" />
<glyph unicode="=" horiz-adv-x="909" d="M131 453v170h645v-170h-645zM131 840v170h645v-170h-645z" />
<glyph unicode="&#x3e;" horiz-adv-x="909" d="M133 385v199l442 172l-442 170v188l651 -280v-164z" />
<glyph unicode="?" horiz-adv-x="929" d="M84 911v228q0 161 98 249.5t289 88.5q186 0 281.5 -89t95.5 -237v-145q0 -86 -25 -150q-22 -54 -57 -93.5t-86 -78.5q-37 -29 -55 -45.5t-42 -45.5t-34.5 -62t-11.5 -74l-2 -111q-24 21 -93 21q-72 0 -96 -21q-4 46 -4 94v39q0 83 25 144q15 37 40.5 69t47 50t55.5 44 q35 27 43.5 33.5t34.5 31.5t34.5 41t17.5 44.5t9 60.5v140q0 76 -44 121t-136 45q-99 0 -140.5 -44.5t-41.5 -138.5v-209h-203zM313 129q0 82 30 112.5t99 30.5t98 -30.5t29 -112.5t-30 -114.5t-99 -32.5q-71 0 -99 31.5t-28 115.5z" />
<glyph unicode="@" horiz-adv-x="1302" d="M96 322v497q0 191 72 320q72 133 197.5 202.5t293.5 69.5q184 0 304 -72q120 -70 182.5 -194.5t62.5 -290.5v-442q0 -346 -239 -346q-143 0 -191 114q-36 -123 -170 -123q-219 0 -219 291v449q0 150 57.5 223.5t159.5 73.5q133 0 172 -125l27 112h98v-753q0 -69 16.5 -97 t55.5 -28q42 0 60 48.5t18 164.5v430q0 191 -98 300t-298 109q-190 0 -297.5 -116t-107.5 -330v-475q0 -219 102.5 -328.5t294.5 -109.5q96 0 158.5 27t110.5 87l169 -57q-149 -213 -442 -213q-167 0 -289 61q-260 136 -260 521zM547 360q0 -92 21 -128.5t79 -36.5 q55 0 78 38.5t23 128.5v418q0 98 -21.5 138t-79.5 40q-52 0 -76 -39.5t-24 -134.5v-424z" />
<glyph unicode="A" horiz-adv-x="962" d="M37 0l342 1460h194l355 -1460h-195l-59 272h-385l-58 -272h-194zM328 453h305l-137 622l-19 213l-18 -213z" />
<glyph unicode="B" horiz-adv-x="974" d="M125 0v1460h371q145 0 227 -39q154 -71 154 -276v-115q0 -114 -42 -182t-133 -100q101 -29 148 -94.5t47 -170.5v-137q0 -170 -85 -258t-282 -88h-405zM315 172h189q110 0 152 40t42 146v113q0 99 -49 145t-162 46h-172v-490zM315 829h168q113 0 158 47t45 158v92 q0 170 -194 170h-177v-467z" />
<glyph unicode="C" horiz-adv-x="983" d="M96 428v600q0 222 105 336.5t299 114.5q213 0 308 -107.5t95 -343.5v-115h-205v107q0 161 -41 223t-159 62q-110 0 -156.5 -70t-46.5 -215v-580q0 -144 47 -212t158 -68q107 0 152.5 68t45.5 212v146h205v-158q0 -448 -405 -448q-402 0 -402 448z" />
<glyph unicode="D" horiz-adv-x="1007" d="M125 0v1460h344q131 0 225 -47q217 -95 217 -397v-572q0 -155 -57 -251q-54 -96 -153.5 -144.5t-231.5 -48.5h-344zM317 172h146q119 0 184.5 71t65.5 218v543q0 147 -67 218.5t-187 71.5h-142v-1122z" />
<glyph unicode="E" horiz-adv-x="866" d="M125 0v1460h655v-174h-465v-455h404v-178h-404v-473h486v-180h-676z" />
<glyph unicode="F" horiz-adv-x="808" d="M125 0v1460h620v-176h-434v-483h410v-178h-410v-623h-186z" />
<glyph unicode="G" horiz-adv-x="1019" d="M96 430v596q0 223 111 338t313 115q188 0 289.5 -96.5t101.5 -274.5v-164h-200v160q0 203 -195 203q-115 0 -169 -72t-54 -219v-572q0 -150 52 -217t167 -67q73 0 119 37q86 71 86 223v162h-221v172h415v-754h-123l-30 240q-50 -260 -301 -260q-176 0 -268.5 113 t-92.5 337z" />
<glyph unicode="H" horiz-adv-x="1028" d="M125 0v1460h192v-637h396v637h192v-1460h-192v639h-396v-639h-192z" />
<glyph unicode="I" horiz-adv-x="698" d="M72 0v180h184v1106h-184v174h555v-174h-185v-1106h185v-180h-555z" />
<glyph unicode="J" horiz-adv-x="888" d="M68 340v201h198v-189q0 -190 154 -190q86 0 122 51.5t36 171.5v1075h198v-1085q0 -203 -88.5 -299t-267.5 -96q-172 0 -262 90t-90 270z" />
<glyph unicode="K" horiz-adv-x="1003" d="M125 0v1460h188v-635l-2 -34l404 669h219l-330 -530l359 -930h-211l-271 733l-18 66l-150 -238v-561h-188z" />
<glyph unicode="L" horiz-adv-x="815" d="M125 0v1460h192v-1276h441v-184h-633z" />
<glyph unicode="M" horiz-adv-x="1187" d="M125 0v1460h178l293 -696l291 696h176v-1460h-180v913l47 340l-82 -258l-223 -516h-60l-237 529l-76 243l53 -340v-911h-180z" />
<glyph unicode="N" horiz-adv-x="1069" d="M125 0v1460h168l416 -934l88 -250l-31 267v917h178v-1460h-166l-424 944l-86 293l33 -317v-920h-176z" />
<glyph unicode="O" horiz-adv-x="1017" d="M96 430v592q0 221 109.5 338t304.5 117t303.5 -116.5t108.5 -338.5v-592q0 -226 -107.5 -338t-306.5 -112q-198 0 -305 111.5t-107 338.5zM295 442q0 -142 51.5 -212t163.5 -70q109 0 161 70.5t52 211.5v572q0 144 -51.5 216.5t-163.5 72.5q-111 0 -162 -73t-51 -216 v-572z" />
<glyph unicode="P" d="M125 0v1460h358q208 0 303 -86t95 -284v-240q0 -381 -392 -381h-176v-469h-188zM313 639h168q209 0 209 213v235q0 113 -49.5 158t-161.5 45h-166v-651z" />
<glyph unicode="Q" horiz-adv-x="1017" d="M96 430v592q0 221 109.5 338t304.5 117t303.5 -116.5t108.5 -338.5v-592q0 -266 -154 -379l158 -248h-244l-94 181q-54 -4 -80 -4q-198 0 -305 111.5t-107 338.5zM295 442q0 -142 51.5 -212t163.5 -70q109 0 161 70.5t52 211.5v572q0 144 -51.5 216.5t-163.5 72.5 q-111 0 -162 -73t-51 -216v-572z" />
<glyph unicode="R" horiz-adv-x="980" d="M125 0v1460h371q203 0 296 -85t93 -253v-164q0 -212 -176 -278q84 -26 121.5 -90.5t37.5 -181.5v-322q0 -50 39 -86h-213q-24 24 -24 90v311q0 101 -39 145t-144 44h-172v-590h-190zM315 760h177q105 0 151.5 52t46.5 157v137q0 98 -47.5 142t-155.5 44h-172v-532z" />
<glyph unicode="S" horiz-adv-x="921" d="M70 360v185h200v-180q0 -102 47 -155.5t156 -53.5q96 0 141 51.5t45 140.5v60q0 74 -36 122q-23 31 -64 60t-71 45t-91 45q-91 47 -145 82q-164 108 -164 309v47q0 94 39 180q82 179 332 179q190 0 280 -91.5t90 -248.5v-160h-192v147q0 93 -43 140t-137 47 q-91 0 -133.5 -53.5t-42.5 -143.5v-33q0 -72 36 -120q23 -29 62.5 -58t72.5 -47t89 -45q91 -47 145 -82q79 -52 121.5 -124.5t42.5 -182.5v-76q0 -166 -99.5 -265t-277.5 -99q-218 0 -310.5 93.5t-92.5 284.5z" />
<glyph unicode="T" horiz-adv-x="806" d="M43 1282v178h721v-178h-264v-1282h-193v1282h-264z" />
<glyph unicode="U" horiz-adv-x="997" d="M115 418v1042h198v-1032q0 -138 44 -199t143 -61q98 0 141 61t43 199v1032h199v-1042q0 -223 -96 -330.5t-287 -107.5q-196 0 -290.5 106.5t-94.5 331.5z" />
<glyph unicode="V" horiz-adv-x="960" d="M35 1460h198l232 -1061l18 -206l17 206l227 1061h199l-346 -1460h-195z" />
<glyph unicode="W" horiz-adv-x="1394" d="M51 1460h189l139 -948l8 -313l29 282l211 979h133l198 -979l27 -297l19 328l159 948h185l-265 -1460h-174l-198 1001l-19 240l-18 -242l-217 -999h-174z" />
<glyph unicode="X" horiz-adv-x="935" d="M25 0l333 766l-295 694h207l185 -489l14 -66l12 64l189 491h209l-306 -694l338 -766h-213l-215 549l-14 61l-12 -61l-213 -549h-219z" />
<glyph unicode="Y" horiz-adv-x="874" d="M12 1460h205l193 -620l24 -140l27 140l198 620h205l-334 -928v-532h-198v532z" />
<glyph unicode="Z" horiz-adv-x="880" d="M70 0v166l526 1114h-483v180h690v-174l-512 -1100h516v-186h-737z" />
<glyph unicode="[" horiz-adv-x="634" d="M139 -334v1831h428v-166h-235v-1499h235v-166h-428z" />
<glyph unicode="\" horiz-adv-x="622" d="M49 1460h195l329 -1460h-194z" />
<glyph unicode="]" horiz-adv-x="634" d="M70 -168h235v1499h-235v166h428v-1831h-428v166z" />
<glyph unicode="^" horiz-adv-x="919" d="M131 901l256 559h139l262 -559h-172l-159 379l-154 -379h-172z" />
<glyph unicode="_" horiz-adv-x="962" d="M72 0v186h819v-186h-819z" />
<glyph unicode="`" horiz-adv-x="868" d="M211 1624h203l186 -321h-145z" />
<glyph unicode="a" horiz-adv-x="927" d="M70 270v43q0 143 102 238q39 35 90 58.5t172 68.5q103 41 129 55q44 24 61 52t17 71v12q0 85 -42.5 126.5t-131.5 41.5q-88 0 -136 -46t-48 -126v-127h-187v133q0 150 96 236t275 86q356 0 356 -336v-856h-151l-27 184q-38 -95 -113 -146.5t-178 -51.5q-136 0 -210 72 t-74 212zM272 291q0 -70 42.5 -110t115.5 -40q96 0 153.5 78t57.5 205v227q-16 -23 -50 -41t-106 -45q-119 -42 -170 -102q-43 -56 -43 -152v-20z" />
<glyph unicode="b" horiz-adv-x="980" d="M117 0v1509h184v-501q60 186 260 186q160 0 245 -108t85 -324v-328q0 -226 -87 -338t-249 -112q-208 0 -262 219l-21 -203h-155zM301 428q0 -129 50.5 -199.5t146.5 -70.5q99 0 148.5 67t49.5 209v332q0 264 -192 264q-95 0 -149 -70.5t-54 -187.5v-344z" />
<glyph unicode="c" horiz-adv-x="917" d="M90 387v397q0 205 98 308.5t283 103.5t278 -96t93 -295v-92h-203v90q0 123 -37.5 174t-132.5 51q-96 0 -140 -59t-44 -187v-391q0 -121 43 -179t137 -58q95 0 134.5 53.5t39.5 171.5v115h203v-119q0 -197 -97 -295t-280 -98q-196 0 -285.5 100t-89.5 305z" />
<glyph unicode="d" horiz-adv-x="983" d="M90 430v332q0 214 89 323t247 109q189 0 256 -176v491h184v-1509h-151l-27 199q-56 -215 -268 -215q-158 0 -244 110t-86 336zM285 438q0 -284 194 -284q99 0 151 71t52 195v350q0 119 -51.5 189.5t-147.5 70.5q-98 0 -148 -70t-50 -204v-318z" />
<glyph unicode="e" horiz-adv-x="925" d="M90 385v393q0 196 102.5 307t284.5 111q139 0 217 -55q156 -101 156 -346v-269h-576v-137q0 -120 47 -177.5t154 -57.5q101 0 141.5 51.5t40.5 146.5v41h193v-22q0 -115 -31 -195q-32 -94 -114.5 -144t-231.5 -50q-383 0 -383 403zM274 686h388v117q0 114 -42.5 169.5 t-142.5 55.5q-203 0 -203 -242v-100z" />
<glyph unicode="f" horiz-adv-x="581" d="M27 1001v179h147v82q0 171 66.5 239t216.5 68h94v-170h-68q-79 0 -102 -28t-23 -120v-71h193v-179h-193l-2 -1001h-182v1001h-147z" />
<glyph unicode="g" horiz-adv-x="905" d="M51 -199q0 70 57 124t156 79q-105 6 -158 52t-53 126q0 149 203 187q-162 63 -162 258v237q0 129 74 212.5t209 109.5l31 6q118 24 156 56t38 114v70h211v-43q0 -114 -54 -170t-198 -62q9 0 37 -4q107 -17 166 -93t59 -188v-241q0 -150 -98 -235t-268 -85h-31 q-114 0 -158.5 -16.5t-44.5 -58.5q0 -68 136 -68h12h196q168 0 246 -68t78 -190v-4q0 -75 -43 -150q-94 -155 -414 -155h-45q-338 0 -338 200zM238 -139v-4q0 -45 44 -71t121 -26h62q120 0 180 36t60 95v5q0 48 -40 77t-124 29h-133q-75 -11 -122.5 -49.5t-47.5 -91.5z M289 629q0 -174 166 -174q174 0 174 176v239q0 83 -40 132t-126 49q-37 0 -64 -9q-110 -35 -110 -176v-237z" />
<glyph unicode="h" horiz-adv-x="956" d="M117 0v1509h184v-518q62 203 258 203q145 0 217 -94t72 -273v-827h-193v801q0 113 -37 168t-126 55q-94 0 -142.5 -66t-48.5 -190v-768h-184z" />
<glyph unicode="i" horiz-adv-x="423" d="M94 1419q0 76 28.5 106.5t94.5 30.5q67 0 95 -30t28 -107q0 -75 -28.5 -106t-94.5 -31q-70 0 -96.5 29.5t-26.5 107.5zM117 0v1180h190v-1180h-190z" />
<glyph unicode="j" horiz-adv-x="423" d="M-57 -199h55q77 0 99 26t22 116v1237h188v-1258q0 -120 -24 -184q-23 -67 -85 -94t-184 -27h-71v184zM92 1419q0 76 28.5 106.5t94.5 30.5q67 0 95 -30t28 -107q0 -75 -28.5 -106t-94.5 -31q-68 0 -95.5 30t-27.5 107z" />
<glyph unicode="k" horiz-adv-x="911" d="M117 0v1509h184v-821l-6 -90l29 66l335 516h218l-295 -439l309 -741h-203l-248 627l-139 -213v-414h-184z" />
<glyph unicode="l" horiz-adv-x="421" d="M117 0v1509h188v-1509h-188z" />
<glyph unicode="m" horiz-adv-x="1431" d="M115 0v1180h155l19 -172q61 198 258 198q207 0 250 -194q62 194 250 194q141 0 210.5 -88.5t69.5 -269.5v-848h-190v817q0 110 -37 164.5t-121 54.5t-123 -59.5t-39 -157.5v-819h-190v823q0 104 -34.5 158.5t-119.5 54.5q-168 0 -168 -252v-784h-190z" />
<glyph unicode="n" horiz-adv-x="956" d="M115 0v1180h155l23 -201q55 215 264 215q295 0 295 -367v-827h-193v801q0 113 -37 168t-126 55q-94 0 -142.5 -66t-48.5 -190v-768h-190z" />
<glyph unicode="o" d="M90 387v397q0 200 102.5 306t280.5 106q179 0 281 -107t102 -305v-397q0 -197 -100.5 -301t-282.5 -104q-383 0 -383 405zM285 391q0 -237 188 -237q189 0 189 237v391q0 246 -189 246q-188 0 -188 -246v-391z" />
<glyph unicode="p" horiz-adv-x="972" d="M115 -389v1569h151l23 -191q64 207 268 207q332 0 332 -448v-326q0 -220 -87 -329t-247 -109q-196 0 -256 184v-557h-184zM299 414q0 -122 50 -191t145 -69q200 0 200 262v338q0 144 -48 210t-146 66q-100 0 -150.5 -71t-50.5 -201v-344z" />
<glyph unicode="q" horiz-adv-x="978" d="M90 403v353q0 438 336 438q207 0 264 -199l21 185h153v-1569h-184v563q-60 -190 -260 -190q-330 0 -330 419zM285 410q0 -129 51 -194.5t143 -65.5q95 0 149 69t54 189v344q0 133 -51.5 204.5t-147.5 71.5q-99 0 -148.5 -62.5t-49.5 -203.5v-352z" />
<glyph unicode="r" horiz-adv-x="630" d="M115 0v1180h147l31 -224q14 107 41 146q28 48 81.5 67t143.5 19h37v-207h-66q-88 0 -141 -29q-48 -28 -67 -87.5t-19 -164.5v-700h-188z" />
<glyph unicode="s" horiz-adv-x="847" d="M57 307v119h201v-107q0 -90 40 -129.5t134 -39.5q83 0 125.5 41t42.5 118v29q0 58 -33 94q-20 22 -56 42.5t-64 32t-82 32.5q-81 31 -136 63q-153 80 -153 256v29q0 138 90.5 223.5t255.5 85.5q171 0 259.5 -82t88.5 -227v-88h-188v86q0 149 -160 149q-79 0 -118.5 -40 t-39.5 -105v-21q0 -51 33 -84q7 -7 14.5 -13.5t18 -13t18 -11.5t22 -11.5t21 -10t25 -10.5t24 -9.5t27 -10.5t25.5 -10q73 -28 139 -63q157 -85 157 -269v-43q0 -155 -91.5 -241t-268.5 -86q-192 0 -281.5 79.5t-89.5 245.5z" />
<glyph unicode="t" horiz-adv-x="630" d="M31 1001v166q55 0 98 17q45 20 66 78q15 46 24 149h141v-231h220v-179h-220v-620q0 -83 13 -127q12 -41 45.5 -55.5t103.5 -14.5h58v-184h-101q-106 0 -180 31q-65 30 -92 107t-27 224v639h-149z" />
<glyph unicode="u" horiz-adv-x="937" d="M109 344v836h192v-805q0 -110 35.5 -165.5t120.5 -55.5q174 0 174 258v768h192v-1180h-155l-23 205q-49 -221 -252 -221q-146 0 -215 90t-69 270z" />
<glyph unicode="v" horiz-adv-x="851" d="M20 1180h193l184 -811l25 -191l27 191l190 811h192l-313 -1180h-192z" />
<glyph unicode="w" horiz-adv-x="1290" d="M25 1180h186l129 -768l16 -209l35 213l187 764h118l176 -766l29 -221l25 217l155 770h185l-262 -1180h-183l-166 748l-18 213l-23 -218l-182 -743h-190z" />
<glyph unicode="x" horiz-adv-x="872" d="M20 0l310 618l-281 562h205l166 -371l16 -74l15 74l165 371h205l-280 -559l311 -621h-209l-192 426l-15 76l-14 -76l-193 -426h-209z" />
<glyph unicode="y" horiz-adv-x="874" d="M31 1180h194l205 -807l19 -160l18 168l188 799h195l-332 -1243q-39 -135 -67 -181q-36 -59 -97 -80.5t-178 -21.5h-100v180h90q61 0 92 8q33 8 52 34.5t32 84.5l16 62z" />
<glyph unicode="z" horiz-adv-x="782" d="M61 -2v152l457 858h-430v172h637v-158l-446 -846h448v-176z" />
<glyph unicode="{" horiz-adv-x="665" d="M66 506v182h71q68 0 98.5 30.5t30.5 100.5q0 56 -24 127q-4 12 -16 47.5t-17 52.5t-14 49t-13.5 54t-8 49.5t-3.5 52.5q0 118 60.5 183t203.5 65h164v-158h-74q-84 0 -119.5 -33.5t-35.5 -103.5q0 -56 24 -127q4 -11 18.5 -54.5t20 -62t15 -52.5t13 -60.5t3.5 -52.5 q0 -190 -187 -193v-10q95 0 142 -53t47 -150q0 -63 -25 -143q-5 -16 -24 -73.5t-26 -81.5t-15 -63t-8 -67q0 -72 36 -104.5t121 -32.5h74v-158h-166q-143 0 -204.5 64.5t-61.5 181.5q0 66 27 162q6 16 23 64t23.5 68t16.5 54.5t14 59t4 45.5q0 75 -32 108t-99 33h-77z" />
<glyph unicode="|" horiz-adv-x="442" d="M125 -127v1714h192v-1714h-192z" />
<glyph unicode="}" horiz-adv-x="665" d="M68 -176h75q85 0 120.5 32.5t35.5 104.5q0 56 -25 133q-2 5 -12.5 36.5t-13 39.5t-11.5 36t-12 40l-9 36t-8.5 38.5t-4.5 33.5t-2 35q0 97 47.5 150t142.5 53v10q-96 1 -141 50t-45 143q0 65 24 139q6 20 23 70t24.5 75t15 61.5t7.5 63.5q0 69 -37 103t-121 34h-73v158 h163q144 0 204.5 -65t60.5 -183q0 -75 -25 -155q-8 -28 -23.5 -75t-24.5 -75t-16.5 -64t-7.5 -63q0 -70 30.5 -100.5t98.5 -30.5h74v-182h-80q-66 0 -98.5 -33t-32.5 -108q0 -49 27 -132q26 -67 40 -108.5t28 -103t14 -109.5q0 -117 -62 -181.5t-205 -64.5h-165v158z" />
<glyph unicode="~" horiz-adv-x="911" d="M127 1108q0 132 44.5 198t145.5 66q78 0 152 -63q4 -3 14 -12t14 -12t13 -10.5t13.5 -10.5t12.5 -7.5t13.5 -6.5t12.5 -3.5t13 -1.5q37 0 51.5 24.5t14.5 94.5h135q0 -130 -45 -197t-149 -67q-82 0 -156 63q-3 2 -12.5 10.5t-12.5 11t-12 9.5t-12.5 9.5t-11 7.5t-12 7 t-11 4.5t-12 3.5t-11.5 1q-54 0 -57 -119h-135z" />
<glyph unicode="&#xa1;" horiz-adv-x="522" d="M133 1059q0 81 30.5 113t98.5 32q73 0 100 -30.5t27 -114.5q0 -81 -29.5 -112.5t-97.5 -31.5t-98.5 31.5t-30.5 112.5zM158 76q0 206 14 475q7 188 18 283l17.5 -3.5t25.5 -4t27 -1.5q7 0 70 9q6 -18 20 -283q12 -308 12 -475v-352h-204v352z" />
<glyph unicode="&#xa2;" horiz-adv-x="933" d="M90 387v397q0 181 78 283t225 123v209h182v-211q281 -48 281 -383v-92h-203v90q0 122 -40.5 173.5t-137.5 51.5t-143.5 -59.5t-46.5 -186.5v-391q0 -237 188 -237q96 0 138 53t42 170v117h203v-121q0 -167 -73 -262.5t-210 -120.5v-221h-184v219q-153 20 -226 119 t-73 280z" />
<glyph unicode="&#xa3;" horiz-adv-x="1021" d="M20 143q0 83 54.5 132t144.5 49q73 0 154 -43q2 10 2 34q0 120 -56 273h-217v151h164q-1 4 -12 35t-13 37.5t-11.5 34.5t-12 38.5t-9.5 36.5t-9.5 40.5t-7.5 39.5t-6.5 44.5t-3 43.5t-1.5 48q0 160 92.5 253t262.5 93q164 0 250.5 -86t86.5 -250v-82l-206 -2v82 q0 81 -34 122.5t-110 41.5q-139 0 -139 -170q0 -69 11.5 -146t21 -116t35.5 -138h262v-151h-226q29 -129 29 -258q0 -57 -16 -123q101 -64 164 -64q55 0 76.5 42.5t21.5 152.5v49h203v-76q0 -189 -56 -265.5t-200 -76.5q-75 0 -138.5 28.5t-136.5 80.5q-82 -109 -209 -109 q-102 0 -153.5 45t-51.5 129zM170 147q0 -51 66 -51q60 0 100 56q-68 47 -111 47q-55 0 -55 -52z" />
<glyph unicode="&#xa4;" horiz-adv-x="1069" d="M70 352l166 178q-39 80 -39 177v84q0 102 45 182l-158 166l123 127l160 -170q76 39 172 39t166 -37l155 172l131 -119l-157 -174q47 -73 47 -184v-84q0 -98 -39 -172l157 -168l-125 -125l-155 168q-85 -45 -180 -45q-101 0 -177 39l-157 -175zM362 711q0 -79 48 -132 t129 -53q78 0 127 53t49 132v77q0 80 -47.5 132.5t-128.5 52.5q-82 0 -129.5 -50.5t-47.5 -134.5v-77z" />
<glyph unicode="&#xa5;" horiz-adv-x="874" d="M12 1460h203l195 -512l22 -117l27 117l200 512h203l-332 -762h242v-153h-244v-129h242v-152h-242v-264h-194v264h-230v152h230v129h-228v153h224z" />
<glyph unicode="&#xa6;" horiz-adv-x="442" d="M125 -127v795h192v-795h-192zM125 819v768h192v-768h-192z" />
<glyph unicode="&#xa7;" horiz-adv-x="901" d="M25 762v10q0 65 52.5 112.5t125.5 53.5q-105 79 -105 221v10q0 136 89.5 213.5t256.5 77.5q173 0 261 -74.5t88 -216.5v-92h-189v90q0 70 -37.5 100.5t-122.5 30.5q-157 0 -157 -127v-8q0 -47 26 -76q10 -11 24 -21t41.5 -22t44.5 -19t64.5 -24.5t69.5 -25.5 q110 -42 168 -70q76 -37 112.5 -84.5t36.5 -120.5v-10q0 -64 -48 -111.5t-115 -52.5q50 -37 75 -89.5t25 -133.5v-16q0 -305 -360 -305q-194 0 -282.5 74.5t-88.5 238.5v98h201v-86q0 -88 39 -122.5t135 -34.5q86 0 127 31.5t41 105.5v2q0 46 -34.5 79.5t-77 52.5t-159.5 62 l-3 1.5t-3 1t-4 1.5q-110 42 -168 70q-76 37 -112.5 84.5t-36.5 120.5zM193 823q0 -38 24 -65q42 -44 252 -125q21 -8 57 -21.5t56.5 -21t46 -19t43.5 -22.5q32 32 35 86v4q0 38 -25 66q-50 53 -252 124q-154 61 -197 89q-37 -34 -40 -91v-4z" />
<glyph unicode="&#xa8;" horiz-adv-x="876" d="M180 1419q0 65 26 92t81 27q57 0 82.5 -27t25.5 -92t-25 -93t-83 -28q-60 0 -83.5 26t-23.5 95zM479 1419q0 65 26 92t83 27q55 0 80.5 -27t25.5 -92q0 -64 -25.5 -92.5t-80.5 -28.5q-61 0 -85 26t-24 95z" />
<glyph unicode="&#xa9;" horiz-adv-x="1275" d="M96 520v398q0 173 70 301q70 126 191 192t278 66q152 0 280 -64q126 -68 195.5 -189t69.5 -290v-408q0 -177 -70 -299q-70 -121 -190 -184t-277 -63q-167 0 -285 59q-126 60 -194 181t-68 300zM238 530q0 -197 107 -303t298 -106q189 0 291 106.5t102 309.5v387 q0 198 -106.5 305.5t-294.5 107.5q-185 0 -291 -112.5t-106 -317.5v-377zM373 535v389q0 150 72 227.5t200 77.5q125 0 196.5 -67.5t71.5 -194.5v-119h-145v115q0 133 -121 133q-66 0 -98.5 -41.5t-32.5 -132.5v-383q0 -166 129 -166q123 0 123 143v131h145v-135 q0 -133 -74.5 -203.5t-195.5 -70.5q-270 0 -270 297z" />
<glyph unicode="&#xaa;" horiz-adv-x="700" d="M53 831v19q0 53 22.5 98t61.5 72q38 27 77 44.5t118 47.5q82 30 109.5 52.5t27.5 58.5v2q0 56 -23 82t-81 26q-119 0 -119 -119v-55h-174v60q0 123 75 191.5t218 68.5q276 0 276 -262v-572h-152l-20 125q-61 -135 -221 -135q-98 0 -146.5 52t-48.5 144zM248 852 q0 -36 21.5 -60t58.5 -24q67 0 104 47.5t37 132.5v123q-14 -25 -104 -61q-65 -25 -86 -56q-12 -18 -16.5 -26t-9.5 -24t-5 -34v-18z" />
<glyph unicode="&#xab;" horiz-adv-x="964" d="M123 606v17l237 385h172l-239 -385l262 -392h-186zM457 610v21l235 377h174l-239 -379l274 -398h-186z" />
<glyph unicode="&#xac;" horiz-adv-x="1013" d="M86 778v176h801v-542h-182v366h-619z" />
<glyph unicode="&#xad;" horiz-adv-x="808" d="M94 516v191h623v-191h-623z" />
<glyph unicode="&#xae;" horiz-adv-x="835" d="M78 1104v39q0 159 95 251.5t243 92.5q97 0 174 -41q168 -89 168 -299v-41q0 -159 -93.5 -248.5t-242.5 -89.5q-158 0 -251 84.5t-93 251.5zM182 1114q0 -123 64 -184.5t176 -61.5q108 0 170.5 62t62.5 184v25q0 120 -64.5 183.5t-174.5 63.5q-106 0 -170 -65.5 t-64 -185.5v-21zM283 944v373h147q148 0 148 -119q0 -71 -68 -94q55 -14 55 -92v-47q0 -18 8 -21h-96q-6 18 -6 23v45q0 33 -9 42t-44 9h-43v-119h-92zM375 1147h41q69 0 69 47q0 25 -16 34t-53 9h-41v-90z" />
<glyph unicode="&#xaf;" horiz-adv-x="868" d="M199 1315v147h473v-147h-473z" />
<glyph unicode="&#xb0;" horiz-adv-x="634" d="M68 1221v10q0 116 70.5 180t178.5 64q115 0 182.5 -65t67.5 -179v-10q0 -108 -67.5 -173t-182.5 -65t-182 64t-67 174zM213 1227q0 -51 27.5 -80t76.5 -29q52 0 79.5 29.5t27.5 79.5v4q0 53 -29 81.5t-78 28.5q-45 0 -74.5 -28.5t-29.5 -81.5v-4z" />
<glyph unicode="&#xb1;" horiz-adv-x="884" d="M131 311v172h625v-172h-625zM131 819v170h227v223h166v-223h232v-170h-232v-223h-166v223h-227z" />
<glyph unicode="&#xb2;" horiz-adv-x="524" d="M57 731v94q0 67 29 117q16 31 44 61t48.5 47t57.5 44q47 35 71.5 69t24.5 78v39q0 38 -15.5 56t-52.5 18q-67 0 -67 -78v-100h-138v106q0 90 54 139t153 49q103 0 153 -45.5t50 -140.5v-49q0 -71 -32 -121t-89 -92q-3 -2 -20.5 -16.5t-21 -17.5t-18.5 -15.5t-19.5 -17.5 t-16 -16.5t-16 -19t-11.5 -18t-10.5 -20.5t-5.5 -21h264v-129h-416z" />
<glyph unicode="&#xb3;" horiz-adv-x="534" d="M49 903v92h139v-84q0 -69 72 -69q41 0 58.5 14.5t17.5 46.5v74q0 37 -16 51t-54 14h-61v119h61q40 0 53 15t13 55v49q0 43 -14 59.5t-54 16.5q-38 0 -53.5 -18t-15.5 -60v-64h-138v64q0 192 205 192q203 0 203 -176v-59q0 -95 -82 -125q92 -23 92 -129v-90 q0 -80 -56 -126t-157 -46q-213 0 -213 184z" />
<glyph unicode="&#xb4;" horiz-adv-x="868" d="M313 1303l207 321h205l-264 -321h-148z" />
<glyph unicode="&#xb6;" horiz-adv-x="1177" d="M72 1026q0 208 110.5 321t325.5 113h547v-1460h-183v1298h-145v-1298h-182v590h-37q-214 -1 -325 112.5t-111 323.5zM266 1026q0 -133 62 -201.5t182 -68.5h35v542h-37q-242 0 -242 -272z" />
<glyph unicode="&#xb7;" horiz-adv-x="505" d="M125 614q0 82 29.5 113t97.5 31q69 0 99 -31t30 -113q0 -81 -30.5 -113t-98.5 -32q-71 0 -99 31t-28 114z" />
<glyph unicode="&#xb8;" horiz-adv-x="868" d="M145 -262h166q9 -92 121 -92q111 0 111 82q0 71 -117 71h-82v213h139v-104q102 -4 156.5 -50t54.5 -126q0 -101 -68.5 -154t-193.5 -53q-140 0 -204.5 52t-82.5 161z" />
<glyph unicode="&#xb9;" horiz-adv-x="440" d="M47 731v127h115v379h-99v104q57 4 83 31.5t34 87.5h107v-602h110v-127h-350z" />
<glyph unicode="&#xba;" horiz-adv-x="720" d="M80 915v279q0 136 77.5 210.5t202.5 74.5q129 0 205 -74t76 -211v-279q0 -136 -75 -208t-206 -72q-138 0 -209 71t-71 209zM254 922q0 -129 106 -129q109 0 109 129v268q0 70 -26.5 103.5t-82.5 33.5q-54 0 -80 -33.5t-26 -103.5v-268z" />
<glyph unicode="&#xbb;" horiz-adv-x="964" d="M76 231l274 398l-241 379h176l233 -377v-21l-256 -379h-186zM420 231l264 394l-242 383h174l236 -385v-17l-246 -375h-186z" />
<glyph unicode="&#xbc;" horiz-adv-x="1177" d="M82 90l432 586l59 -41l-303 -672zM86 731v127h115v379h-99v104q57 4 83 31.5t34 87.5h107v-602h110v-127h-350zM612 147v99l275 483h117v-471h86v-111h-86v-147h-117v147h-275zM631 858l309 649l182 -118l-430 -572zM748 258h139v195l12 114l-39 -104z" />
<glyph unicode="&#xbd;" horiz-adv-x="1177" d="M82 90l432 586l59 -41l-303 -672zM86 731v127h115v379h-99v104q57 4 83 31.5t34 87.5h107v-602h110v-127h-350zM631 858l309 649l182 -118l-430 -572zM682 0v94q0 67 29 117q16 31 44 61t48 46t57 44q46 35 71 69.5t25 78.5v39q0 38 -15 56t-52 18q-68 0 -68 -78v-101 h-137v107q0 90 54 139t153 49q103 0 153 -45.5t50 -140.5v-49q0 -71 -32 -121t-89 -92q-3 -2 -20.5 -16.5t-21 -17.5t-18.5 -15.5t-19.5 -17.5t-16 -16.5t-16 -19t-11.5 -18t-10.5 -20.5t-5.5 -21h264v-129h-416z" />
<glyph unicode="&#xbe;" horiz-adv-x="1177" d="M49 903v92h139v-84q0 -69 72 -69q41 0 58.5 14.5t17.5 46.5v74q0 37 -16 51t-54 14h-61v119h61q40 0 53 15t13 55v49q0 43 -14 59.5t-54 16.5q-38 0 -53.5 -18t-15.5 -60v-64h-138v64q0 192 205 192q203 0 203 -176v-59q0 -95 -82 -125q92 -23 92 -129v-90 q0 -80 -56 -126t-157 -46q-213 0 -213 184zM82 90l432 586l59 -41l-303 -672zM610 147v99l275 483h116v-471h86v-111h-86v-147h-116v147h-275zM631 858l309 649l182 -118l-430 -572zM745 258h140v195l12 114l-39 -104z" />
<glyph unicode="&#xbf;" horiz-adv-x="929" d="M88 33v145q0 86 25 150q22 54 57 93.5t86 78.5q37 29 55 45.5t42 45.5t34.5 62t11.5 74l2 111q24 -21 93 -21q72 0 96 21q4 -46 4 -95v-38q0 -83 -25 -144q-22 -53 -56.5 -89t-86.5 -75q-35 -27 -43.5 -33.5t-34.5 -31.5t-34.5 -41t-17.5 -44.5t-9 -60.5v-139 q0 -76 44 -121t136 -45q100 0 141 44t41 138v209h203v-227q0 -161 -97.5 -249.5t-289.5 -88.5q-186 0 -281.5 89t-95.5 237zM367 1055q0 82 30 114.5t99 32.5q71 0 99 -31.5t28 -115.5q0 -81 -30.5 -112.5t-98.5 -31.5t-97.5 31.5t-29.5 112.5z" />
<glyph unicode="&#xc0;" horiz-adv-x="962" d="M37 0l342 1460h194l355 -1460h-195l-59 272h-385l-58 -272h-194zM156 1905h202l187 -322h-146zM328 453h305l-137 622l-19 213l-18 -213z" />
<glyph unicode="&#xc1;" horiz-adv-x="962" d="M37 0l342 1460h194l355 -1460h-195l-59 272h-385l-58 -272h-194zM328 453h305l-137 622l-19 213l-18 -213zM395 1583l207 322h205l-264 -322h-148z" />
<glyph unicode="&#xc2;" horiz-adv-x="962" d="M37 0l342 1460h194l355 -1460h-195l-59 272h-385l-58 -272h-194zM188 1575l215 321h134l217 -321h-166l-117 186l-119 -186h-164zM328 453h305l-137 622l-19 213l-18 -213z" />
<glyph unicode="&#xc3;" horiz-adv-x="962" d="M37 0l342 1460h194l355 -1460h-195l-59 272h-385l-58 -272h-194zM156 1579q2 127 44.5 191.5t139.5 64.5q70 0 106 -31q19 -13 51.5 -39t54 -38.5t40.5 -12.5q34 0 46.5 22.5t12.5 90.5h131q0 -127 -42 -191.5t-144 -64.5q-82 0 -147 61q-5 4 -18.5 15t-18.5 15t-16 11.5 t-18 10.5t-17 5.5t-19 2.5q-27 0 -40 -25.5t-13 -87.5h-133zM328 453h305l-137 622l-19 213l-18 -213z" />
<glyph unicode="&#xc4;" horiz-adv-x="962" d="M37 0l342 1460h194l355 -1460h-195l-59 272h-385l-58 -272h-194zM215 1690q0 64 25.5 91t81.5 27q57 0 82.5 -26.5t25.5 -91.5t-25 -93t-83 -28q-60 0 -83.5 26t-23.5 95zM328 453h305l-137 622l-19 213l-18 -213zM514 1690q0 65 26 91.5t83 26.5q55 0 80.5 -26.5 t25.5 -91.5q0 -64 -25.5 -92.5t-80.5 -28.5q-61 0 -85 26t-24 95z" />
<glyph unicode="&#xc5;" horiz-adv-x="962" d="M37 0l342 1460h194l355 -1460h-195l-59 272h-385l-58 -272h-194zM250 1769q0 98 61 157t158 59q104 0 163.5 -57t59.5 -159t-60 -158.5t-163 -56.5q-101 0 -160 55t-59 160zM328 453h305l-137 622l-19 213l-18 -213zM385 1769q0 -86 84 -86q35 0 61.5 23t26.5 63 q0 42 -23.5 66.5t-64.5 24.5q-37 0 -60.5 -25t-23.5 -66z" />
<glyph unicode="&#xc6;" horiz-adv-x="1394" d="M14 0l502 1460h791v-174h-562l54 -455h444v-178h-424l55 -473h453v-180h-610l-33 279h-377l-92 -279h-201zM360 444h306l-70 600l2 228l-41 -228z" />
<glyph unicode="&#xc7;" horiz-adv-x="983" d="M96 428v600q0 222 105 336.5t299 114.5q213 0 308 -107.5t95 -343.5v-115h-205v107q0 161 -41 223t-159 62q-110 0 -156.5 -70t-46.5 -215v-580q0 -144 47 -212t158 -68q107 0 152.5 68t45.5 212v146h205v-158q0 -402 -328 -444v-101q102 -4 156.5 -50t54.5 -126 q0 -101 -68.5 -154t-193.5 -53q-140 0 -204 52t-82 161h165q9 -92 121 -92q111 0 111 82q0 72 -117 72h-82v207q-340 36 -340 446z" />
<glyph unicode="&#xc8;" horiz-adv-x="866" d="M125 0v1460h655v-174h-465v-455h404v-178h-404v-473h486v-180h-676zM150 1905h202l187 -322h-146z" />
<glyph unicode="&#xc9;" horiz-adv-x="866" d="M125 0v1460h655v-174h-465v-455h404v-178h-404v-473h486v-180h-676zM373 1583l207 322h204l-264 -322h-147z" />
<glyph unicode="&#xca;" horiz-adv-x="866" d="M125 0v1460h655v-174h-465v-455h404v-178h-404v-473h486v-180h-676zM172 1583l215 322h133l217 -322h-166l-116 186l-119 -186h-164z" />
<glyph unicode="&#xcb;" horiz-adv-x="866" d="M125 0v1460h655v-174h-465v-455h404v-178h-404v-473h486v-180h-676zM203 1700q0 65 25.5 92t80.5 27q57 0 83 -27t26 -92t-25.5 -93t-83.5 -28q-59 0 -82.5 25.5t-23.5 95.5zM502 1700q0 65 25.5 92t82.5 27q55 0 81 -27t26 -92q0 -64 -26 -92.5t-81 -28.5 q-61 0 -84.5 25.5t-23.5 95.5z" />
<glyph unicode="&#xcc;" horiz-adv-x="698" d="M29 1905h202l187 -322h-146zM72 0v180h184v1106h-184v174h555v-174h-185v-1106h185v-180h-555z" />
<glyph unicode="&#xcd;" horiz-adv-x="698" d="M72 0v180h184v1106h-184v174h555v-174h-185v-1106h185v-180h-555zM268 1583l207 322h205l-264 -322h-148z" />
<glyph unicode="&#xce;" horiz-adv-x="698" d="M66 1583l215 322h133l217 -322h-166l-117 186l-119 -186h-163zM72 0v180h184v1106h-184v174h555v-174h-185v-1106h185v-180h-555z" />
<glyph unicode="&#xcf;" horiz-adv-x="698" d="M72 0v180h184v1106h-184v174h555v-174h-185v-1106h185v-180h-555zM94 1700q0 65 26 92t81 27q57 0 82.5 -27t25.5 -92t-25 -93t-83 -28q-60 0 -83.5 26t-23.5 95zM393 1700q0 65 26 92t83 27q55 0 80.5 -27t25.5 -92q0 -64 -25.5 -92.5t-80.5 -28.5q-61 0 -85 26t-24 95z " />
<glyph unicode="&#xd0;" horiz-adv-x="1015" d="M14 637v178h129v645h344q132 0 226 -47q213 -96 213 -397v-572q0 -222 -118 -333t-321 -111h-344v637h-129zM334 172h147q119 0 184.5 71t65.5 218v543q0 147 -67 218.5t-187 71.5h-143v-479h196v-178h-196v-465z" />
<glyph unicode="&#xd1;" horiz-adv-x="1069" d="M125 0v1460h168l416 -934l88 -250l-31 267v917h178v-1460h-166l-424 944l-86 293l33 -317v-920h-176zM254 1589q2 127 44.5 191.5t139.5 64.5q72 0 107 -30q20 -13 51.5 -39t53 -39t40.5 -13q34 0 47 22.5t13 90.5h131q0 -127 -42.5 -191.5t-144.5 -64.5q-82 0 -147 61 q-5 4 -18.5 15t-18.5 15t-16 11.5t-18 10.5t-17 5.5t-19 2.5q-27 0 -40 -25.5t-13 -87.5h-133z" />
<glyph unicode="&#xd2;" horiz-adv-x="1017" d="M96 430v592q0 221 109.5 338t304.5 117t303.5 -116.5t108.5 -338.5v-592q0 -226 -107.5 -338t-306.5 -112q-198 0 -305 111.5t-107 338.5zM197 1927h202l187 -321h-146zM295 442q0 -142 51.5 -212t163.5 -70q109 0 161 70.5t52 211.5v572q0 144 -51.5 216.5t-163.5 72.5 q-111 0 -162 -73t-51 -216v-572z" />
<glyph unicode="&#xd3;" horiz-adv-x="1017" d="M96 430v592q0 221 109.5 338t304.5 117t303.5 -116.5t108.5 -338.5v-592q0 -226 -107.5 -338t-306.5 -112q-198 0 -305 111.5t-107 338.5zM295 442q0 -142 51.5 -212t163.5 -70q109 0 161 70.5t52 211.5v572q0 144 -51.5 216.5t-163.5 72.5q-111 0 -162 -73t-51 -216 v-572zM453 1604l206 321h205l-264 -321h-147z" />
<glyph unicode="&#xd4;" horiz-adv-x="1017" d="M96 430v592q0 221 109.5 338t304.5 117t303.5 -116.5t108.5 -338.5v-592q0 -226 -107.5 -338t-306.5 -112q-198 0 -305 111.5t-107 338.5zM229 1606l215 321h134l217 -321h-166l-117 186l-119 -186h-164zM295 442q0 -142 51.5 -212t163.5 -70q109 0 161 70.5t52 211.5 v572q0 144 -51.5 216.5t-163.5 72.5q-111 0 -162 -73t-51 -216v-572z" />
<glyph unicode="&#xd5;" horiz-adv-x="1017" d="M96 430v592q0 221 109.5 338t304.5 117t303.5 -116.5t108.5 -338.5v-592q0 -226 -107.5 -338t-306.5 -112q-198 0 -305 111.5t-107 338.5zM197 1610q2 127 44.5 191.5t139.5 64.5q70 0 106 -31q19 -13 51.5 -39t54 -38.5t40.5 -12.5q34 0 46.5 22.5t12.5 90.5h131 q0 -127 -42 -191.5t-144 -64.5q-83 0 -148 61q-5 4 -18.5 15t-18.5 14.5t-15.5 11t-17.5 10.5t-17 5.5t-19 2.5q-27 0 -40 -25t-13 -87h-133zM295 442q0 -142 51.5 -212t163.5 -70q109 0 161 70.5t52 211.5v572q0 144 -51.5 216.5t-163.5 72.5q-111 0 -162 -73t-51 -216 v-572z" />
<glyph unicode="&#xd6;" horiz-adv-x="1017" d="M96 430v592q0 221 109.5 338t304.5 117t303.5 -116.5t108.5 -338.5v-592q0 -226 -107.5 -338t-306.5 -112q-198 0 -305 111.5t-107 338.5zM256 1722q0 65 25.5 92t80.5 27q57 0 83 -27t26 -92q0 -64 -25 -92t-84 -28q-60 0 -83 25.5t-23 94.5zM295 442q0 -142 51.5 -212 t163.5 -70q109 0 161 70.5t52 211.5v572q0 144 -51.5 216.5t-163.5 72.5q-111 0 -162 -73t-51 -216v-572zM555 1722q0 65 26 92t83 27q55 0 80.5 -27t25.5 -92q0 -64 -25.5 -92t-80.5 -28q-61 0 -85 25.5t-24 94.5z" />
<glyph unicode="&#xd7;" horiz-adv-x="874" d="M98 516l221 223l-202 207l114 115l203 -207l209 213l113 -117l-209 -211l219 -223l-115 -115l-219 224l-221 -224z" />
<glyph unicode="&#xd8;" horiz-adv-x="1036" d="M96 430v594q0 221 112 340t310 119q62 0 119 -13l41 156h143l-57 -209q176 -112 176 -393v-594q0 -226 -110 -340.5t-312 -114.5q-56 0 -106 9l-45 -168h-152l64 217q-183 108 -183 397zM293 442q0 -118 41 -192l258 1050q-34 11 -74 11q-113 0 -169 -76t-56 -219v-574z M457 160q54 -6 61 -6q227 0 227 288v574q0 115 -36 186z" />
<glyph unicode="&#xd9;" horiz-adv-x="997" d="M115 418v1042h198v-1032q0 -138 44 -199t143 -61q98 0 141 61t43 199v1032h199v-1042q0 -223 -96 -330.5t-287 -107.5q-196 0 -290.5 106.5t-94.5 331.5zM182 1896h203l186 -321h-145z" />
<glyph unicode="&#xda;" horiz-adv-x="997" d="M115 418v1042h198v-1032q0 -138 44 -199t143 -61q98 0 141 61t43 199v1032h199v-1042q0 -223 -96 -330.5t-287 -107.5q-196 0 -290.5 106.5t-94.5 331.5zM422 1575l207 321h205l-265 -321h-147z" />
<glyph unicode="&#xdb;" horiz-adv-x="997" d="M115 418v1042h198v-1032q0 -138 44 -199t143 -61q98 0 141 61t43 199v1032h199v-1042q0 -223 -96 -330.5t-287 -107.5q-196 0 -290.5 106.5t-94.5 331.5zM215 1575l215 321h133l217 -321h-166l-116 186l-119 -186h-164z" />
<glyph unicode="&#xdc;" horiz-adv-x="997" d="M115 418v1042h198v-1032q0 -138 44 -199t143 -61q98 0 141 61t43 199v1032h199v-1042q0 -223 -96 -330.5t-287 -107.5q-196 0 -290.5 106.5t-94.5 331.5zM242 1692q0 65 25.5 91.5t80.5 26.5q57 0 83 -26.5t26 -91.5t-25.5 -93t-83.5 -28q-59 0 -82.5 25.5t-23.5 95.5z M541 1692q0 65 25.5 91.5t82.5 26.5q56 0 81.5 -27t25.5 -91t-26 -92.5t-81 -28.5q-61 0 -84.5 25.5t-23.5 95.5z" />
<glyph unicode="&#xdd;" horiz-adv-x="874" d="M12 1460h205l193 -620l24 -140l27 140l198 620h205l-334 -928v-532h-198v532zM375 1573l207 321h204l-264 -321h-147z" />
<glyph unicode="&#xde;" d="M125 0v1460h188v-239h170q208 0 303 -86t95 -285v-203q0 -381 -392 -381h-176v-266h-188zM313 436h168q209 0 209 213v199q0 113 -49.5 158t-161.5 45h-166v-615z" />
<glyph unicode="&#xdf;" horiz-adv-x="997" d="M117 0v1194q0 162 97.5 255t281.5 93q186 0 279 -87t93 -251v-98q0 -115 -33.5 -187.5t-123.5 -105.5q104 -26 150 -99t46 -200v-137q0 -104 -28 -193q-56 -184 -334 -184h-90v180h59q107 0 151 51t44 162v119q0 113 -51.5 164t-161.5 51h-39v168h39q100 0 144 50.5 t44 154.5v94q0 89 -46 131.5t-142 42.5q-191 0 -191 -182v-1186h-188z" />
<glyph unicode="&#xe0;" horiz-adv-x="927" d="M70 270v43q0 143 102 238q39 35 90 58.5t172 68.5q103 41 129 55q44 24 61 52t17 71v12q0 85 -42.5 126.5t-131.5 41.5q-88 0 -136 -46t-48 -126v-127h-187v133q0 150 96 236t275 86q356 0 356 -336v-856h-151l-27 184q-38 -95 -113 -146.5t-178 -51.5q-136 0 -210 72 t-74 212zM160 1638h202l187 -321h-146zM272 291q0 -70 42.5 -110t115.5 -40q96 0 153.5 78t57.5 205v227q-16 -23 -50 -41t-106 -45q-119 -42 -170 -102q-43 -56 -43 -152v-20z" />
<glyph unicode="&#xe1;" horiz-adv-x="927" d="M70 270v43q0 143 102 238q39 35 90 58.5t172 68.5q103 41 129 55q44 24 61 52t17 71v12q0 85 -42.5 126.5t-131.5 41.5q-88 0 -136 -46t-48 -126v-127h-187v133q0 150 96 236t275 86q356 0 356 -336v-856h-151l-27 184q-38 -95 -113 -146.5t-178 -51.5q-136 0 -210 72 t-74 212zM272 291q0 -70 42.5 -110t115.5 -40q96 0 153.5 78t57.5 205v227q-16 -23 -50 -41t-106 -45q-119 -42 -170 -102q-43 -56 -43 -152v-20zM385 1317l207 321h205l-265 -321h-147z" />
<glyph unicode="&#xe2;" horiz-adv-x="927" d="M70 270v43q0 143 102 238q39 35 90 58.5t172 68.5q103 41 129 55q44 24 61 52t17 71v12q0 85 -42.5 126.5t-131.5 41.5q-88 0 -136 -46t-48 -126v-127h-187v133q0 150 96 236t275 86q356 0 356 -336v-856h-151l-27 184q-38 -95 -113 -146.5t-178 -51.5q-136 0 -210 72 t-74 212zM193 1317l215 321h133l217 -321h-166l-117 186l-119 -186h-163zM272 291q0 -70 42.5 -110t115.5 -40q96 0 153.5 78t57.5 205v227q-16 -23 -50 -41t-106 -45q-119 -42 -170 -102q-43 -56 -43 -152v-20z" />
<glyph unicode="&#xe3;" horiz-adv-x="927" d="M70 270v43q0 143 102 238q39 35 90 58.5t172 68.5q103 41 129 55q44 24 61 52t17 71v12q0 85 -42.5 126.5t-131.5 41.5q-88 0 -136 -46t-48 -126v-127h-187v133q0 150 96 236t275 86q356 0 356 -336v-856h-151l-27 184q-38 -95 -113 -146.5t-178 -51.5q-136 0 -210 72 t-74 212zM160 1321q2 127 44.5 191.5t139.5 64.5q71 0 107 -31q19 -13 51 -39t53.5 -38.5t40.5 -12.5q34 0 46.5 22.5t12.5 90.5h131q0 -127 -42 -191.5t-144 -64.5q-82 0 -147 61q-5 4 -18.5 15t-18.5 15t-16 11.5t-18 10.5t-17 5.5t-19 2.5q-27 0 -40 -25.5t-13 -87.5 h-133zM272 291q0 -70 42.5 -110t115.5 -40q96 0 153.5 78t57.5 205v227q-16 -23 -50 -41t-106 -45q-119 -42 -170 -102q-43 -56 -43 -152v-20z" />
<glyph unicode="&#xe4;" horiz-adv-x="927" d="M70 270v43q0 143 102 238q39 35 90 58.5t172 68.5q103 41 129 55q44 24 61 52t17 71v12q0 85 -42.5 126.5t-131.5 41.5q-88 0 -136 -46t-48 -126v-127h-187v133q0 150 96 236t275 86q356 0 356 -336v-856h-151l-27 184q-38 -95 -113 -146.5t-178 -51.5q-136 0 -210 72 t-74 212zM219 1434q0 64 25.5 91t81.5 27q57 0 82.5 -26.5t25.5 -91.5t-25 -93t-83 -28q-60 0 -83.5 26t-23.5 95zM272 291q0 -70 42.5 -110t115.5 -40q96 0 153.5 78t57.5 205v227q-16 -23 -50 -41t-106 -45q-119 -42 -170 -102q-43 -56 -43 -152v-20zM518 1434 q0 65 26 91.5t83 26.5q55 0 80.5 -26.5t25.5 -91.5q0 -64 -25.5 -92.5t-80.5 -28.5q-61 0 -85 26t-24 95z" />
<glyph unicode="&#xe5;" horiz-adv-x="927" d="M70 270v43q0 143 102 238q39 35 90 58.5t172 68.5q103 41 129 55q44 24 61 52t17 71v12q0 85 -42.5 126.5t-131.5 41.5q-88 0 -136 -46t-48 -126v-127h-187v133q0 150 96 236t275 86q356 0 356 -336v-856h-151l-27 184q-38 -95 -113 -146.5t-178 -51.5q-136 0 -210 72 t-74 212zM248 1540q0 97 60.5 156t158.5 59q104 0 163.5 -56.5t59.5 -158.5t-60 -158.5t-163 -56.5q-101 0 -160 55t-59 160zM272 291q0 -70 42.5 -110t115.5 -40q96 0 153.5 78t57.5 205v227q-16 -23 -50 -41t-106 -45q-119 -42 -170 -102q-43 -56 -43 -152v-20zM383 1540 q0 -86 84 -86q35 0 61.5 23t26.5 63q0 41 -23.5 65.5t-64.5 24.5q-37 0 -60.5 -24.5t-23.5 -65.5z" />
<glyph unicode="&#xe6;" horiz-adv-x="1484" d="M70 270v45q0 83 23.5 136.5t76.5 99.5q39 35 92.5 60t171.5 69q103 41 129 55q43 24 60.5 50.5t17.5 62.5v24q0 85 -42.5 126.5t-131.5 41.5q-88 0 -136 -46t-48 -126v-131h-187v137q0 150 95 236t272 86q222 0 289 -127q98 127 286 127q191 0 281 -106t90 -295v-277 h-586v-119q0 -245 199 -245q195 0 195 196v43h192v-37q0 -108 -39 -190q-80 -184 -350 -184q-266 0 -340 217q-77 -215 -315 -215q-140 0 -217.5 73.5t-77.5 212.5zM274 297q0 -76 40.5 -116t109.5 -40q101 0 159 77.5t58 205.5v227q-16 -23 -50 -41t-106 -45 q-68 -24 -105 -46.5t-63 -53.5q-25 -30 -34 -63t-9 -89v-16zM823 678h400v125q0 113 -46 169t-147 56q-207 0 -207 -242v-108z" />
<glyph unicode="&#xe7;" horiz-adv-x="917" d="M90 387v397q0 205 98 308.5t283 103.5t278 -96t93 -295v-92h-203v90q0 123 -37.5 174t-132.5 51q-96 0 -140 -59t-44 -187v-391q0 -121 43 -179t137 -58q95 0 134.5 53.5t39.5 171.5v115h203v-119q0 -172 -76.5 -269t-218.5 -118v-105q102 -4 156.5 -50t54.5 -126 q0 -101 -68.5 -154t-193.5 -53q-140 0 -204.5 52t-82.5 161h166q9 -92 121 -92q110 0 110 82q0 72 -117 72h-81v209q-166 13 -242 112.5t-76 290.5z" />
<glyph unicode="&#xe8;" horiz-adv-x="925" d="M90 385v393q0 196 102.5 307t284.5 111q139 0 217 -55q156 -101 156 -346v-269h-576v-137q0 -120 47 -177.5t154 -57.5q101 0 141.5 51.5t40.5 146.5v41h193v-22q0 -115 -31 -195q-32 -94 -114.5 -144t-231.5 -50q-383 0 -383 403zM182 1636h203l186 -321h-145zM274 686 h388v117q0 114 -42.5 169.5t-142.5 55.5q-203 0 -203 -242v-100z" />
<glyph unicode="&#xe9;" horiz-adv-x="925" d="M90 385v393q0 196 102.5 307t284.5 111q139 0 217 -55q156 -101 156 -346v-269h-576v-137q0 -120 47 -177.5t154 -57.5q101 0 141.5 51.5t40.5 146.5v41h193v-22q0 -115 -31 -195q-32 -94 -114.5 -144t-231.5 -50q-383 0 -383 403zM274 686h388v117q0 114 -42.5 169.5 t-142.5 55.5q-203 0 -203 -242v-100zM406 1315l206 321h205l-264 -321h-147z" />
<glyph unicode="&#xea;" horiz-adv-x="925" d="M90 385v393q0 196 102.5 307t284.5 111q139 0 217 -55q156 -101 156 -346v-269h-576v-137q0 -120 47 -177.5t154 -57.5q101 0 141.5 51.5t40.5 146.5v41h193v-22q0 -115 -31 -195q-32 -94 -114.5 -144t-231.5 -50q-383 0 -383 403zM203 1315l215 321h133l217 -321h-166 l-117 186l-118 -186h-164zM274 686h388v117q0 114 -42.5 169.5t-142.5 55.5q-203 0 -203 -242v-100z" />
<glyph unicode="&#xeb;" horiz-adv-x="925" d="M90 385v393q0 196 102.5 307t284.5 111q139 0 217 -55q156 -101 156 -346v-269h-576v-137q0 -120 47 -177.5t154 -57.5q101 0 141.5 51.5t40.5 146.5v41h193v-22q0 -115 -31 -195q-32 -94 -114.5 -144t-231.5 -50q-383 0 -383 403zM225 1432q0 64 25.5 91t81.5 27 q57 0 82.5 -26.5t25.5 -91.5t-25 -93t-83 -28q-60 0 -83.5 26t-23.5 95zM274 686h388v117q0 114 -42.5 169.5t-142.5 55.5q-203 0 -203 -242v-100zM524 1432q0 65 26 91.5t83 26.5q55 0 80.5 -26.5t25.5 -91.5q0 -64 -25.5 -92.5t-80.5 -28.5q-61 0 -85 26t-24 95z" />
<glyph unicode="&#xec;" horiz-adv-x="423" d="M-102 1624h202l187 -321h-146zM117 0v1180h190v-1180h-190z" />
<glyph unicode="&#xed;" horiz-adv-x="423" d="M117 0v1180h190v-1180h-190zM135 1303l207 321h205l-264 -321h-148z" />
<glyph unicode="&#xee;" horiz-adv-x="423" d="M-76 1303l215 321h133l217 -321h-165l-117 186l-119 -186h-164zM117 0v1180h190v-1180h-190z" />
<glyph unicode="&#xef;" horiz-adv-x="423" d="M-51 1419q0 65 25.5 92t80.5 27q57 0 83 -27t26 -92t-25.5 -93t-83.5 -28q-59 0 -82.5 25.5t-23.5 95.5zM117 0v1180h190v-1180h-190zM248 1419q0 65 25.5 92t82.5 27q55 0 81 -27t26 -92q0 -64 -26 -92.5t-81 -28.5q-61 0 -84.5 25.5t-23.5 95.5z" />
<glyph unicode="&#xf0;" horiz-adv-x="960" d="M90 387v383q0 192 87 292.5t245 100.5q169 0 231 -141q-40 151 -190 289l-84 -66h-197l187 144q-117 87 -236 159h283q39 -23 84 -61l80 61h194l-182 -141q260 -254 260 -621v-399q0 -198 -98.5 -301.5t-280.5 -103.5q-383 0 -383 405zM285 391q0 -237 188 -237 q189 0 189 237v379q0 229 -181 229q-96 0 -146 -58t-50 -173v-377z" />
<glyph unicode="&#xf1;" horiz-adv-x="956" d="M115 0v1180h155l23 -201q55 215 264 215q295 0 295 -367v-827h-193v801q0 113 -37 168t-126 55q-94 0 -142.5 -66t-48.5 -190v-768h-190zM190 1315q2 127 44.5 191.5t140.5 64.5q70 0 106 -31q19 -13 51.5 -39t54 -38.5t40.5 -12.5q34 0 46.5 22.5t12.5 90.5h131 q0 -127 -42 -191.5t-144 -64.5q-83 0 -148 61q-5 4 -18.5 15t-18.5 14.5t-15.5 11t-17.5 10.5t-17 5.5t-19 2.5q-27 0 -40 -25t-13 -87h-134z" />
<glyph unicode="&#xf2;" d="M90 387v397q0 200 102.5 306t280.5 106q179 0 281 -107t102 -305v-397q0 -197 -100.5 -301t-282.5 -104q-383 0 -383 405zM164 1638h203l186 -321h-145zM285 391q0 -237 188 -237q189 0 189 237v391q0 246 -189 246q-188 0 -188 -246v-391z" />
<glyph unicode="&#xf3;" d="M90 387v397q0 200 102.5 306t280.5 106q179 0 281 -107t102 -305v-397q0 -197 -100.5 -301t-282.5 -104q-383 0 -383 405zM285 391q0 -237 188 -237q189 0 189 237v391q0 246 -189 246q-188 0 -188 -246v-391zM403 1317l207 321h205l-264 -321h-148z" />
<glyph unicode="&#xf4;" d="M90 387v397q0 200 102.5 306t280.5 106q179 0 281 -107t102 -305v-397q0 -197 -100.5 -301t-282.5 -104q-383 0 -383 405zM197 1317l215 321h133l217 -321h-166l-117 186l-119 -186h-163zM285 391q0 -237 188 -237q189 0 189 237v391q0 246 -189 246q-188 0 -188 -246 v-391z" />
<glyph unicode="&#xf5;" d="M90 387v397q0 200 102.5 306t280.5 106q179 0 281 -107t102 -305v-397q0 -197 -100.5 -301t-282.5 -104q-383 0 -383 405zM164 1321q2 127 44.5 191.5t139.5 64.5q71 0 107 -31q19 -13 51 -39t53.5 -38.5t40.5 -12.5q34 0 46.5 22.5t12.5 90.5h132q0 -127 -42.5 -191.5 t-144.5 -64.5q-82 0 -147 61q-5 4 -18.5 15t-18.5 15t-16 11.5t-18 10.5t-17 5.5t-19 2.5q-27 0 -40 -25.5t-13 -87.5h-133zM285 391q0 -237 188 -237q189 0 189 237v391q0 246 -189 246q-188 0 -188 -246v-391z" />
<glyph unicode="&#xf6;" d="M90 387v397q0 200 102.5 306t280.5 106q179 0 281 -107t102 -305v-397q0 -197 -100.5 -301t-282.5 -104q-383 0 -383 405zM223 1434q0 64 25.5 91t81.5 27q57 0 82.5 -26.5t25.5 -91.5t-25 -93t-83 -28q-60 0 -83.5 26t-23.5 95zM285 391q0 -237 188 -237q189 0 189 237 v391q0 246 -189 246q-188 0 -188 -246v-391zM522 1434q0 65 26 91.5t83 26.5q55 0 80.5 -26.5t25.5 -91.5q0 -64 -25.5 -92.5t-80.5 -28.5q-61 0 -85 26t-24 95z" />
<glyph unicode="&#xf7;" horiz-adv-x="884" d="M106 635v172h674v-172h-674zM340 434q0 58 24.5 80.5t77.5 22.5q56 0 79.5 -22.5t23.5 -80.5q0 -57 -24 -79.5t-79 -22.5q-57 0 -79.5 21.5t-22.5 80.5zM340 1014q0 58 24.5 80t77.5 22q56 0 79.5 -22t23.5 -80t-24 -81.5t-79 -23.5q-56 0 -79 23t-23 82z" />
<glyph unicode="&#xf8;" d="M90 387v397q0 200 102.5 306t280.5 106q56 0 92 -8l43 155h127l-55 -196q85 -44 130.5 -137t45.5 -226v-397q0 -197 -100.5 -301t-282.5 -104q-61 0 -92 6l-43 -172h-133l57 211q-172 88 -172 360zM283 391q0 -97 34 -158l203 791q-28 4 -47 4q-190 0 -190 -246v-391z M424 158q32 -4 49 -4q191 0 191 237v391q0 105 -37 166z" />
<glyph unicode="&#xf9;" horiz-adv-x="937" d="M109 344v836h192v-805q0 -110 35.5 -165.5t120.5 -55.5q174 0 174 258v768h192v-1180h-155l-23 205q-49 -221 -252 -221q-146 0 -215 90t-69 270zM145 1612h203l187 -322h-146z" />
<glyph unicode="&#xfa;" horiz-adv-x="937" d="M109 344v836h192v-805q0 -110 35.5 -165.5t120.5 -55.5q174 0 174 258v768h192v-1180h-155l-23 205q-49 -221 -252 -221q-146 0 -215 90t-69 270zM385 1290l207 322h205l-265 -322h-147z" />
<glyph unicode="&#xfb;" horiz-adv-x="937" d="M109 344v836h192v-805q0 -110 35.5 -165.5t120.5 -55.5q174 0 174 258v768h192v-1180h-155l-23 205q-49 -221 -252 -221q-146 0 -215 90t-69 270zM178 1290l215 322h133l217 -322h-165l-117 187l-119 -187h-164z" />
<glyph unicode="&#xfc;" horiz-adv-x="937" d="M109 344v836h192v-805q0 -110 35.5 -165.5t120.5 -55.5q174 0 174 258v768h192v-1180h-155l-23 205q-49 -221 -252 -221q-146 0 -215 90t-69 270zM205 1407q0 65 25.5 92t80.5 27q57 0 83 -27t26 -92t-25.5 -93t-83.5 -28q-59 0 -82.5 25.5t-23.5 95.5zM504 1407 q0 65 25.5 92t82.5 27q55 0 81 -27t26 -92q0 -64 -26 -92.5t-81 -28.5q-61 0 -84.5 25.5t-23.5 95.5z" />
<glyph unicode="&#xfd;" horiz-adv-x="874" d="M31 1180h194l205 -807l19 -160l18 168l188 799h195l-332 -1243q-39 -135 -67 -181q-36 -59 -97 -80.5t-178 -21.5h-100v180h90q61 0 92 8q33 8 52 34.5t32 84.5l16 62zM360 1284l207 322h205l-264 -322h-148z" />
<glyph unicode="&#xfe;" horiz-adv-x="974" d="M117 -389v1898h186v-491q66 178 254 178q332 0 332 -448v-326q0 -220 -87 -329t-247 -109q-187 0 -252 166v-539h-186zM299 414q0 -122 50 -191t145 -69q200 0 200 262v338q0 144 -48 210t-146 66q-100 0 -150.5 -71t-50.5 -201v-344z" />
<glyph unicode="&#xff;" horiz-adv-x="874" d="M31 1180h194l205 -807l19 -160l18 168l188 799h195l-332 -1243q-39 -135 -67 -181q-36 -59 -97 -80.5t-178 -21.5h-100v180h90q61 0 92 8q33 8 52 34.5t32 84.5l16 62zM182 1409q0 65 26 92t81 27q57 0 82.5 -27t25.5 -92t-25 -93t-83 -28q-60 0 -83.5 26t-23.5 95z M481 1409q0 65 26 92t83 27q55 0 80.5 -27t25.5 -92q0 -64 -25.5 -92.5t-80.5 -28.5q-61 0 -85 26t-24 95z" />
<glyph unicode="&#x152;" horiz-adv-x="1456" d="M96 430v592q0 219 102.5 337t274.5 118q181 0 242 -134v117h655v-174h-465v-455h404v-178h-404v-473h486v-180h-676v119q-32 -70 -91 -104.5t-159 -34.5q-169 0 -269 113.5t-100 336.5zM295 442q0 -142 51.5 -212t163.5 -70q109 0 161 70.5t52 211.5v572 q0 144 -51.5 216.5t-163.5 72.5q-111 0 -162 -73t-51 -216v-572z" />
<glyph unicode="&#x153;" horiz-adv-x="1511" d="M90 387v397q0 200 100 306t273 106q115 0 186.5 -40t110.5 -124q87 164 307 164q133 0 211 -55q78 -53 117 -143t39 -203v-277h-586v-123q0 -241 199 -241q194 0 194 196v43h193v-37q0 -106 -37 -190q-80 -184 -336 -184q-228 0 -307 149q-78 -149 -295 -149 q-186 0 -277.5 100.5t-91.5 304.5zM285 391q0 -237 188 -237q189 0 189 237v391q0 246 -189 246q-188 0 -188 -246v-391zM848 678h399v125q0 113 -45.5 169t-146.5 56q-207 0 -207 -242v-108z" />
<glyph unicode="&#x178;" horiz-adv-x="874" d="M12 1460h205l193 -620l24 -140l27 140l198 620h205l-334 -928v-532h-198v532zM195 1690q0 65 25.5 91.5t80.5 26.5q57 0 83 -26.5t26 -91.5t-25.5 -93t-83.5 -28q-59 0 -82.5 25.5t-23.5 95.5zM494 1690q0 65 25.5 91.5t82.5 26.5q56 0 81.5 -27t25.5 -91t-26 -92.5 t-81 -28.5q-61 0 -84.5 25.5t-23.5 95.5z" />
<glyph unicode="&#x2c6;" horiz-adv-x="868" d="M152 1303l215 321h133l217 -321h-166l-117 186l-119 -186h-163z" />
<glyph unicode="&#x2dc;" horiz-adv-x="868" d="M125 1307q2 127 44.5 191.5t139.5 64.5q71 0 107 -31q19 -13 51 -39t53.5 -38.5t40.5 -12.5q34 0 47 22t13 90h131q0 -127 -42 -191.5t-145 -64.5q-81 0 -147 62q-3 2 -18 14.5t-19 15t-16 11t-18.5 10.5t-16.5 5t-19 3q-27 0 -40 -25t-13 -87h-133z" />
<glyph unicode="&#x2000;" horiz-adv-x="992" />
<glyph unicode="&#x2001;" horiz-adv-x="1985" />
<glyph unicode="&#x2002;" horiz-adv-x="992" />
<glyph unicode="&#x2003;" horiz-adv-x="1985" />
<glyph unicode="&#x2004;" horiz-adv-x="661" />
<glyph unicode="&#x2005;" horiz-adv-x="496" />
<glyph unicode="&#x2006;" horiz-adv-x="330" />
<glyph unicode="&#x2007;" horiz-adv-x="330" />
<glyph unicode="&#x2008;" horiz-adv-x="248" />
<glyph unicode="&#x2009;" horiz-adv-x="397" />
<glyph unicode="&#x200a;" horiz-adv-x="110" />
<glyph unicode="&#x2010;" horiz-adv-x="808" d="M94 516v191h623v-191h-623z" />
<glyph unicode="&#x2011;" horiz-adv-x="808" d="M94 516v191h623v-191h-623z" />
<glyph unicode="&#x2012;" horiz-adv-x="808" d="M94 516v191h623v-191h-623z" />
<glyph unicode="&#x2013;" horiz-adv-x="763" d="M94 516v191h576v-191h-576z" />
<glyph unicode="&#x2014;" horiz-adv-x="1030" d="M94 516v191h842v-191h-842z" />
<glyph unicode="&#x2018;" horiz-adv-x="468" d="M121 1186q0 282 215 297v-94q-50 -6 -74.5 -36.5t-28.5 -95.5q9 3 23 3q52 0 73 -24t21 -99t-23.5 -102t-86.5 -27q-68 0 -93.5 36.5t-25.5 141.5z" />
<glyph unicode="&#x2019;" horiz-adv-x="468" d="M121 1350q0 75 23.5 102t86.5 27q67 0 93 -37t26 -142q0 -281 -215 -296v94q50 6 74.5 36.5t28.5 94.5l-8 -1q-9 -1 -15 -1q-52 0 -73 25t-21 98z" />
<glyph unicode="&#x201a;" horiz-adv-x="491" d="M127 119q0 75 24 102t87 27q67 0 92.5 -36.5t25.5 -141.5q0 -282 -215 -297v94q50 6 74.5 36t28.5 95q-2 -2 -23 -2q-52 0 -73 25t-21 98z" />
<glyph unicode="&#x201c;" horiz-adv-x="802" d="M121 1186q0 282 215 297v-94q-50 -6 -74.5 -36.5t-28.5 -95.5q9 3 23 3q52 0 73 -24t21 -99t-23.5 -102t-86.5 -27q-68 0 -93.5 36.5t-25.5 141.5zM455 1186q0 282 215 297v-94q-50 -6 -74.5 -36.5t-28.5 -95.5q9 3 23 3q52 0 73 -24t21 -99t-24 -102t-87 -27 q-67 0 -92.5 36.5t-25.5 141.5z" />
<glyph unicode="&#x201d;" horiz-adv-x="802" d="M119 1350q0 75 23.5 102t86.5 27q67 0 93 -37t26 -142q0 -281 -215 -296v94q50 6 74.5 36.5t28.5 94.5l-8 -1q-9 -1 -15 -1q-52 0 -73 25t-21 98zM453 1350q0 75 23.5 102t86.5 27q67 0 93 -37t26 -142q0 -281 -215 -296v94q50 6 74 36.5t28 94.5l-8 -1q-8 -1 -14 -1 q-52 0 -73 25t-21 98z" />
<glyph unicode="&#x201e;" horiz-adv-x="802" d="M119 119q0 75 23.5 102t86.5 27q68 0 93.5 -36.5t25.5 -141.5q0 -282 -215 -297v94q50 6 74.5 36t28.5 95q-2 -2 -23 -2q-52 0 -73 25t-21 98zM453 119q0 75 23.5 102t86.5 27q68 0 93.5 -36.5t25.5 -141.5q0 -282 -215 -297v94q50 6 74 36t28 95q-2 -2 -22 -2 q-52 0 -73 25t-21 98z" />
<glyph unicode="&#x2022;" horiz-adv-x="542" d="M111 592q0 84 39.5 122t119.5 38q83 0 122.5 -36t39.5 -124q0 -84 -39 -122t-123 -38q-86 0 -122.5 37t-36.5 123z" />
<glyph unicode="&#x2026;" horiz-adv-x="1245" d="M131 125q0 83 25.5 111t91.5 28q67 0 92 -28t25 -111q0 -82 -25 -111.5t-92 -29.5t-92 29t-25 112zM508 125q0 83 25.5 111t91.5 28q67 0 91.5 -28t24.5 -111q0 -82 -24.5 -111.5t-91.5 -29.5t-92 29t-25 112zM883 125q0 83 25 111t91 28q67 0 92 -28t25 -111 q0 -82 -25 -111.5t-92 -29.5t-91.5 28.5t-24.5 112.5z" />
<glyph unicode="&#x202f;" horiz-adv-x="397" />
<glyph unicode="&#x2039;" horiz-adv-x="634" d="M123 602v21l235 385h179l-244 -390l262 -387h-186z" />
<glyph unicode="&#x203a;" horiz-adv-x="634" d="M80 231l262 387l-244 390h178l236 -385v-21l-246 -371h-186z" />
<glyph unicode="&#x205f;" horiz-adv-x="496" />
<glyph unicode="&#x20ac;" horiz-adv-x="1024" d="M51 528v140h129v141h-129v139h129v80q0 223 106.5 337t307.5 114q203 0 299 -105.5t96 -290.5v-22h-198v14q0 120 -44.5 175t-154.5 55q-118 0 -167.5 -70t-49.5 -215v-72h463l-56 -139h-407v-141h360l-53 -140h-307v-88q0 -143 51.5 -211.5t169.5 -68.5q113 0 154 56.5 t41 195.5v22h204v-35q0 -207 -101 -313t-296 -106q-418 0 -418 448v100h-129z" />
<glyph unicode="&#x2122;" horiz-adv-x="1011" d="M53 1352v108h336v-108h-113v-514h-114v514h-109zM459 838v622h96l127 -278l125 278h98v-622h-108v282l18 189l-41 -142l-84 -170h-16l-86 170l-41 142l18 -189v-282h-106z" />
<glyph unicode="&#x25fc;" horiz-adv-x="1177" d="M0 0v1178h1178v-1178h-1178z" />
</font>
</defs>
</svg>
